<svg width="20" height="20" viewBox="0 0 20 20" fill="none" xmlns="http://www.w3.org/2000/svg">
<path d="M2.99699 5.5C2.99699 4.83696 3.26039 4.20107 3.72923 3.73223C4.19807 3.26339 4.83395 3 5.49699 3H14.497C15.16 3 15.7959 3.26339 16.2648 3.73223C16.7336 4.20107 16.997 4.83696 16.997 5.5V14.5C16.997 15.163 16.7336 15.7989 16.2648 16.2678C15.7959 16.7366 15.16 17 14.497 17H5.49699C4.83395 17 4.19807 16.7366 3.72923 16.2678C3.26039 15.7989 2.99699 15.163 2.99699 14.5V5.5ZM15.997 6V5.5C15.997 5.10218 15.839 4.72064 15.5577 4.43934C15.2763 4.15804 14.8948 4 14.497 4H8.99699V5.5C8.99699 5.63261 9.04967 5.75979 9.14344 5.85355C9.23721 5.94732 9.36439 6 9.49699 6H15.997ZM7.99699 4H5.49699C5.09917 4 4.71764 4.15804 4.43633 4.43934C4.15503 4.72064 3.99699 5.10218 3.99699 5.5V14.5C3.99699 14.8978 4.15503 15.2794 4.43633 15.5607C4.71764 15.842 5.09917 16 5.49699 16H14.497C14.8948 16 15.2763 15.842 15.5577 15.5607C15.839 15.2794 15.997 14.8978 15.997 14.5V7H9.49699C9.09917 7 8.71764 6.84196 8.43633 6.56066C8.15503 6.27936 7.99699 5.89782 7.99699 5.5V4Z" fill="black"/>
</svg>
